<svg width="40" height="41" viewBox="0 0 40 41" fill="none" xmlns="http://www.w3.org/2000/svg">
<rect x="0.5" y="1.16528" width="39" height="39" rx="5.5" stroke="#D4D4D4"/>
<path d="M18.8186 24.626V25.665H12.304V24.7559L15.5647 21.126C15.9657 20.6794 16.2756 20.3011 16.4944 19.9912C16.7177 19.6768 16.8726 19.3965 16.9592 19.1504C17.0504 18.8997 17.0959 18.6445 17.0959 18.3848C17.0959 18.0566 17.0276 17.7604 16.8909 17.4961C16.7587 17.2272 16.5627 17.013 16.303 16.8535C16.0432 16.694 15.7288 16.6143 15.3596 16.6143C14.9176 16.6143 14.5484 16.7008 14.2522 16.874C13.9605 17.0426 13.7418 17.2796 13.5959 17.585C13.4501 17.8903 13.3772 18.2412 13.3772 18.6377H12.1125C12.1125 18.0771 12.2356 17.5645 12.4817 17.0996C12.7278 16.6348 13.0924 16.2656 13.5754 15.9922C14.0585 15.7142 14.6532 15.5752 15.3596 15.5752C15.9885 15.5752 16.5263 15.6868 16.9729 15.9102C17.4195 16.1289 17.7613 16.4388 17.9983 16.8398C18.2398 17.2363 18.3606 17.7012 18.3606 18.2344C18.3606 18.526 18.3105 18.8223 18.2102 19.123C18.1145 19.4193 17.9801 19.7155 17.8069 20.0117C17.6383 20.3079 17.44 20.5996 17.2122 20.8867C16.9889 21.1738 16.7496 21.4564 16.4944 21.7344L13.8284 24.626H18.8186ZM23.1936 25.665H21.1155L21.1292 24.5918H23.1936C23.9045 24.5918 24.497 24.4437 24.9709 24.1475C25.4449 23.8467 25.8004 23.4274 26.0374 22.8896C26.2789 22.3473 26.3997 21.7139 26.3997 20.9893V20.3809C26.3997 19.8112 26.3313 19.3053 26.1946 18.8633C26.0579 18.4167 25.8573 18.0407 25.593 17.7354C25.3287 17.4255 25.0051 17.1908 24.6223 17.0312C24.2441 16.8717 23.8088 16.792 23.3167 16.792H21.0745V15.7119H23.3167C23.9683 15.7119 24.5631 15.8213 25.1008 16.04C25.6386 16.2542 26.1012 16.5664 26.4885 16.9766C26.8805 17.3822 27.1812 17.8743 27.3909 18.4531C27.6005 19.0273 27.7053 19.6745 27.7053 20.3945V20.9893C27.7053 21.7093 27.6005 22.3587 27.3909 22.9375C27.1812 23.5117 26.8782 24.0016 26.4817 24.4072C26.0898 24.8128 25.6158 25.125 25.0598 25.3438C24.5084 25.5579 23.8863 25.665 23.1936 25.665ZM21.8196 15.7119V25.665H20.5002V15.7119H21.8196Z" fill="#686B6F"/>
</svg>
