<svg width="40" height="41" viewBox="0 0 40 41" fill="none" xmlns="http://www.w3.org/2000/svg">
<rect x="0.5" y="1.18555" width="39" height="39" rx="5.5" stroke="#D4D4D4"/>
<path d="M14.1428 20.0867H15.0452C15.4872 20.0867 15.8518 20.0138 16.1389 19.8679C16.4306 19.7175 16.6471 19.5147 16.7883 19.2595C16.9342 18.9998 17.0071 18.7081 17.0071 18.3845C17.0071 18.0017 16.9433 17.6804 16.8157 17.4207C16.6881 17.1609 16.4967 16.9649 16.2415 16.8328C15.9862 16.7006 15.6627 16.6345 15.2708 16.6345C14.9153 16.6345 14.6008 16.7052 14.3274 16.8464C14.0585 16.9832 13.8466 17.1791 13.6917 17.4343C13.5413 17.6895 13.4661 17.9903 13.4661 18.3367H12.2014C12.2014 17.8308 12.329 17.3705 12.5842 16.9558C12.8394 16.5411 13.1972 16.2107 13.6575 15.9646C14.1223 15.7185 14.6601 15.5955 15.2708 15.5955C15.8723 15.5955 16.3987 15.7026 16.8499 15.9167C17.301 16.1264 17.6519 16.4408 17.9026 16.8601C18.1532 17.2748 18.2786 17.7921 18.2786 18.4119C18.2786 18.6625 18.2193 18.9314 18.1008 19.2185C17.9869 19.5011 17.8069 19.7654 17.5608 20.0115C17.3193 20.2576 17.0048 20.4604 16.6174 20.6199C16.2301 20.7748 15.7652 20.8523 15.2229 20.8523H14.1428V20.0867ZM14.1428 21.1257V20.3669H15.2229C15.8564 20.3669 16.3805 20.4421 16.7952 20.5925C17.2099 20.7429 17.5357 20.9434 17.7727 21.1941C18.0142 21.4447 18.1829 21.7205 18.2786 22.0212C18.3788 22.3175 18.429 22.6137 18.429 22.9099C18.429 23.3748 18.3492 23.7872 18.1897 24.1472C18.0347 24.5072 17.8137 24.8126 17.5266 25.0632C17.2441 25.3139 16.9114 25.503 16.5286 25.6306C16.1458 25.7582 15.7288 25.822 15.2776 25.822C14.8446 25.822 14.4368 25.7605 14.054 25.6375C13.6757 25.5144 13.3407 25.3367 13.0491 25.1042C12.7574 24.8673 12.5295 24.5779 12.3655 24.2361C12.2014 23.8897 12.1194 23.4955 12.1194 23.0535H13.384C13.384 23.3998 13.4592 23.7029 13.6096 23.9626C13.7646 24.2224 13.9833 24.4252 14.2659 24.571C14.553 24.7123 14.8902 24.783 15.2776 24.783C15.665 24.783 15.9976 24.7169 16.2756 24.5847C16.5582 24.448 16.7747 24.2429 16.925 23.9695C17.08 23.696 17.1575 23.352 17.1575 22.9373C17.1575 22.5225 17.0709 22.183 16.8977 21.9187C16.7245 21.6498 16.4784 21.4516 16.1594 21.324C15.845 21.1918 15.4736 21.1257 15.0452 21.1257H14.1428ZM23.1936 25.6853H21.1155L21.1292 24.6121H23.1936C23.9045 24.6121 24.497 24.4639 24.9709 24.1677C25.4449 23.8669 25.8004 23.4477 26.0374 22.9099C26.2789 22.3676 26.3997 21.7341 26.3997 21.0095V20.4011C26.3997 19.8315 26.3313 19.3256 26.1946 18.8835C26.0579 18.4369 25.8573 18.061 25.593 17.7556C25.3287 17.4457 25.0051 17.211 24.6223 17.0515C24.2441 16.892 23.8088 16.8123 23.3167 16.8123H21.0745V15.7322H23.3167C23.9683 15.7322 24.5631 15.8416 25.1008 16.0603C25.6386 16.2745 26.1012 16.5867 26.4885 16.9968C26.8805 17.4024 27.1812 17.8946 27.3909 18.4734C27.6005 19.0476 27.7053 19.6947 27.7053 20.4148V21.0095C27.7053 21.7296 27.6005 22.379 27.3909 22.9578C27.1812 23.532 26.8782 24.0219 26.4817 24.4275C26.0898 24.8331 25.6158 25.1453 25.0598 25.364C24.5084 25.5782 23.8863 25.6853 23.1936 25.6853ZM21.8196 15.7322V25.6853H20.5002V15.7322H21.8196Z" fill="#686B6F"/>
</svg>
