<svg width="42" height="42" viewBox="0 0 42 42" fill="none" xmlns="http://www.w3.org/2000/svg">
<rect x="0.47619" y="41.5238" width="41.0476" height="41.0476" rx="5.52381" transform="rotate(-90 0.47619 41.5238)" fill="white"/>
<rect x="0.47619" y="41.5238" width="41.0476" height="41.0476" rx="5.52381" transform="rotate(-90 0.47619 41.5238)" stroke="#D4D4D4" stroke-width="0.952381"/>
<path fill-rule="evenodd" clip-rule="evenodd" d="M16.0703 14.5713V19.0713L13.5703 21.5713H15.0703V28.5713H20.0703V24.5713H22.0703V28.5713H27.0703V21.5713H28.5703L21.0703 14.0713L19.0703 16.0713V14.5713H16.0703ZM21.0703 15.4853L26.0703 20.4853V27.5713H23.0703V23.5713H19.0703V27.5713H16.0703V20.4853L17.0703 19.4853V15.5713H18.0703V18.4853L21.0703 15.4853Z" fill="#686B6F"/>
<path d="M3 33.1431V39.1431H5.25H9L3 33.1431Z" fill="#6A6A6A"/>
</svg>
