<svg width="42" height="42" viewBox="0 0 42 42" fill="none" xmlns="http://www.w3.org/2000/svg">
<rect x="0.5" y="41.5" width="41" height="41" rx="5.5" transform="rotate(-90 0.5 41.5)" fill="white"/>
<rect x="0.5" y="41.5" width="41" height="41" rx="5.5" transform="rotate(-90 0.5 41.5)" stroke="#D4D4D4"/>
<path fill-rule="evenodd" clip-rule="evenodd" d="M21 27.1607V29.5714H22.0714V27.1607C24.7703 26.9074 26.9074 24.7703 27.1607 22.0714H29.5714V21H27.1607C26.9074 18.3011 24.7703 16.164 22.0714 15.9107V13.5H21V15.9107C18.3011 16.164 16.164 18.3011 15.9107 21H13.5V22.0714H15.9107C16.164 24.7703 18.3011 26.9074 21 27.1607ZM21.5357 16.9286C24.0802 16.9286 26.1429 18.9913 26.1429 21.5357C26.1429 24.0802 24.0802 26.1429 21.5357 26.1429C18.9913 26.1429 16.9286 24.0802 16.9286 21.5357C16.9309 18.9922 18.9922 16.9309 21.5357 16.9286ZM21.5357 24.2143C23.015 24.2143 24.2143 23.015 24.2143 21.5357C24.2143 20.0564 23.015 18.8571 21.5357 18.8571C20.0564 18.8571 18.8571 20.0564 18.8571 21.5357C18.8571 23.015 20.0564 24.2143 21.5357 24.2143ZM21.5357 19.9286C22.4233 19.9286 23.1429 20.6481 23.1429 21.5357C23.1429 22.4233 22.4233 23.1429 21.5357 23.1429C20.6481 23.1429 19.9286 22.4233 19.9286 21.5357C19.9286 20.6481 20.6481 19.9286 21.5357 19.9286Z" fill="#686B6F"/>
</svg>
