<svg width="42" height="42" viewBox="0 0 42 42" fill="none" xmlns="http://www.w3.org/2000/svg">
<rect x="0.5" y="41.5" width="41" height="41" rx="5.5" transform="rotate(-90 0.5 41.5)" fill="white"/>
<rect x="0.5" y="41.5" width="41" height="41" rx="5.5" transform="rotate(-90 0.5 41.5)" stroke="#D4D4D4"/>
<path fill-rule="evenodd" clip-rule="evenodd" d="M21.3364 11.1395C21.1504 10.9535 20.8489 10.9535 20.663 11.1395L17.6325 14.1699C17.4465 14.3559 17.4465 14.6574 17.6325 14.8434C17.8185 15.0293 18.12 15.0293 18.3059 14.8434L20.5235 12.6258V20.5239L12.6258 20.5239L14.8434 18.3064C15.0293 18.1204 15.0293 17.8189 14.8434 17.633C14.6574 17.447 14.3559 17.447 14.1699 17.633L11.1395 20.6634C10.9535 20.8494 10.9535 21.1509 11.1395 21.3369L14.1699 24.3673C14.3559 24.5533 14.6574 24.5533 14.8434 24.3673C15.0293 24.1814 15.0293 23.8798 14.8434 23.6939L12.6258 21.4763L20.5235 21.4763V29.3742L18.3059 27.1566C18.12 26.9707 17.8185 26.9707 17.6325 27.1566C17.4465 27.3426 17.4465 27.6441 17.6325 27.8301L20.663 30.8605C20.8489 31.0465 21.1504 31.0465 21.3364 30.8605L24.3668 27.8301C24.5528 27.6441 24.5528 27.3426 24.3668 27.1566C24.1809 26.9707 23.8794 26.9707 23.6934 27.1566L21.4759 29.3742V21.4763L29.3742 21.4763L27.1566 23.6939C26.9707 23.8798 26.9707 24.1814 27.1566 24.3673C27.3426 24.5533 27.6441 24.5533 27.8301 24.3673L30.8605 21.3369C31.0465 21.1509 31.0465 20.8494 30.8605 20.6634L27.8301 17.633C27.6441 17.447 27.3426 17.447 27.1566 17.633C26.9707 17.8189 26.9707 18.1204 27.1566 18.3064L29.3742 20.524L21.4759 20.5239V12.6258L23.6934 14.8434C23.8794 15.0293 24.1809 15.0293 24.3669 14.8434C24.5528 14.6574 24.5528 14.3559 24.3669 14.1699L21.3364 11.1395Z" fill="#6A6A6A"/>
</svg>
