<svg width="42" height="42" viewBox="0 0 42 42" fill="none" xmlns="http://www.w3.org/2000/svg">
<rect x="0.5" y="41.5" width="41" height="41" rx="5.5" transform="rotate(-90 0.5 41.5)" fill="white"/>
<rect x="0.5" y="41.5" width="41" height="41" rx="5.5" transform="rotate(-90 0.5 41.5)" stroke="#D4D4D4"/>
<path fill-rule="evenodd" clip-rule="evenodd" d="M21.2048 24.5312C23.3567 24.5312 25.1012 22.7867 25.1012 20.6348C25.1012 18.4829 23.3567 16.7385 21.2048 16.7385C19.0529 16.7385 17.3084 18.4829 17.3084 20.6348C17.3084 22.7867 19.0529 24.5312 21.2048 24.5312ZM21.2048 25.3448C23.806 25.3448 25.9147 23.2361 25.9147 20.6348C25.9147 18.0336 23.806 15.9249 21.2048 15.9249C18.6036 15.9249 16.4949 18.0336 16.4949 20.6348C16.4949 23.2361 18.6036 25.3448 21.2048 25.3448Z" fill="#6A6A6A"/>
<path fill-rule="evenodd" clip-rule="evenodd" d="M12.7334 19.3433L11.67 18.2799C11.5167 18.1266 11.2682 18.1266 11.115 18.2799C10.9617 18.4332 10.9617 18.6817 11.115 18.835L12.7999 20.5199C12.9532 20.6732 13.2017 20.6732 13.355 20.5199L15.2025 18.835C15.3557 18.6817 15.3557 18.4332 15.2025 18.2799C15.0492 18.1266 14.8007 18.1266 14.6474 18.2799L13.4699 19.3433C13.9656 15.7054 17.1534 12.785 20.9273 12.785C23.9847 12.785 26.6132 14.6249 27.7643 17.2595L28.4837 16.9453C27.2121 14.035 24.3078 12 20.9273 12C16.679 12 13.1814 15.2141 12.7334 19.3433Z" fill="#6A6A6A"/>
<path fill-rule="evenodd" clip-rule="evenodd" d="M29.3391 22.5405L30.3071 23.6914C30.4466 23.8573 30.6942 23.8786 30.8601 23.7391C31.026 23.5996 31.0474 23.352 30.9079 23.1861L29.3741 21.3625C29.2346 21.1966 28.987 21.1752 28.8211 21.3147L26.8355 22.8345C26.6696 22.974 26.6483 23.2216 26.7878 23.3875C26.9273 23.5534 27.1749 23.5748 27.3408 23.4352L28.6054 22.4771C27.7986 26.0588 24.3714 28.6942 20.6115 28.3696C17.5654 28.1066 15.1049 26.0473 14.1847 23.3235L13.441 23.5747C14.4575 26.5835 17.176 28.8609 20.544 29.1517C24.7765 29.5171 28.5376 26.6158 29.3391 22.5405Z" fill="#6A6A6A"/>
</svg>

