<svg width="21" height="21" viewBox="0 0 21 21" fill="none" xmlns="http://www.w3.org/2000/svg">
<rect x="0.5" y="41.5" width="41" height="41" rx="5.5" transform="rotate(-90 0.5 41.5)" fill="white"/>
<rect x="0.5" y="41.5" width="41" height="41" rx="5.5" transform="rotate(-90 0.5 41.5)" stroke="#D4D4D4"/>
<path fill-rule="evenodd" clip-rule="evenodd" d="M20.5718 19.5333L13.3899 12.3529C15.8185 9.3716 15.4847 5.01016 12.6309 2.43306C9.77707 -0.144037 5.4043 -0.0327017 2.68531 2.68629C-0.0336783 5.40527 -0.145014 9.77805 2.43208 12.6319C5.00918 15.4857 9.37062 15.8194 12.3519 13.3909L19.5323 20.5713L20.5718 19.5333ZM3.77244 11.8655C1.84322 9.93767 1.54448 6.91553 3.05892 4.64733C4.57336 2.37913 7.47917 1.49662 9.99921 2.53953C12.5193 3.58243 13.9516 6.26028 13.4203 8.93534C12.889 11.6104 10.542 13.5376 7.8147 13.5383C6.29897 13.5377 4.84532 12.9361 3.77244 11.8655Z" fill="#6A6A6A"/>
</svg>

